<svg aria-hidden="true" style="position: absolute; width: 0; height: 0; overflow: hidden;" version="1.1" xmlns="http://www.w3.org/2000/svg" xmlns:xlink="http://www.w3.org/1999/xlink">
<defs>
<symbol id="icon-cross" viewBox="0 0 32 32"> <path d="M23.734 10.304l-1.504-1.504-5.963 5.962-5.962-5.962-1.504 1.504 5.962 5.962-5.962 5.963 1.504 1.504 5.962-5.963 5.963 5.963 1.504-1.504-5.963-5.963 5.963-5.962z"></path> </symbol> 
<symbol id="icon-menu" viewBox="0 0 32 32"> <path d="M6.4 11.734v-2.134h19.2v2.134h-19.2zM6.4 17.066h19.2v-2.133h-19.2v2.133zM6.4 22.4h19.2v-2.134h-19.2v2.134z"></path> </symbol>
<symbol id="icon-adv-1" viewBox="0 0 32 32">
<path d="M23.487 15.743c1.77-2.178 2.705-4.734 2.705-7.392v-5.927c0-0.293-0.236-0.546-0.567-0.61l-9.365-1.799c-0.104-0.020-0.212-0.020-0.316 0l-9.365 1.799c-0.332 0.064-0.567 0.317-0.567 0.61v5.927c0 2.658 0.936 5.215 2.705 7.392s4.238 3.809 7.137 4.717c0.080 0.025 0.164 0.038 0.248 0.038s0.168-0.013 0.248-0.038c2.899-0.908 5.367-2.54 7.137-4.717v0zM16.102 19.206c-2.511-0.834-4.65-2.276-6.197-4.179-1.598-1.966-2.443-4.274-2.443-6.675v-5.426l8.64-1.66 8.64 1.66v5.426c0 2.4-0.845 4.708-2.443 6.675-1.547 1.904-3.686 3.345-6.197 4.179z"></path>
<path d="M23.508 4.278c0-0.293-0.236-0.546-0.567-0.61l-6.681-1.283c-0.104-0.020-0.212-0.020-0.316 0l-6.681 1.283c-0.391 0.075-0.637 0.409-0.55 0.746s0.475 0.549 0.866 0.474l6.523-1.253 5.956 1.144v3.572c0 1.923-0.677 3.772-1.957 5.348-1.029 1.266-2.406 2.291-3.998 2.98-1.592-0.689-2.969-1.715-3.998-2.98-1.108-1.363-1.773-2.955-1.924-4.606-0.013-0.138-0.022-0.277-0.027-0.414-0.014-0.345-0.352-0.615-0.75-0.603-0.4 0.012-0.714 0.301-0.7 0.646 0.006 0.155 0.016 0.313 0.031 0.469 0.171 1.873 0.926 3.679 2.182 5.225 1.241 1.526 2.929 2.745 4.882 3.524 0.097 0.039 0.201 0.058 0.305 0.058s0.208-0.019 0.305-0.058c1.954-0.78 3.642-1.998 4.882-3.524 1.452-1.786 2.22-3.884 2.22-6.065v-4.073h-0z"></path>
<path d="M14.035 11.596c0.127 0.129 0.309 0.209 0.505 0.22 0.016 0.001 0.032 0.001 0.048 0.001 0.179 0 0.353-0.057 0.486-0.161l5.258-4.1c0.297-0.231 0.32-0.627 0.051-0.883s-0.728-0.276-1.024-0.044l-4.702 3.666-1.342-1.368c-0.258-0.263-0.716-0.297-1.022-0.074s-0.344 0.617-0.086 0.881l1.827 1.862z"></path>
<path d="M9.994 20.685c-0.382-0.433-0.938-0.708-1.564-0.776s-1.244 0.082-1.738 0.421c-0.231 0.158-0.418 0.348-0.559 0.558l-0.213-0.239c-0.189-0.212-0.293-0.476-0.293-0.744v-5.638c0-1.152-1.088-2.089-2.424-2.089-1.257 0-2.295 0.813-2.414 1.892l-0.776 7.055c-0.068 0.618 0.134 1.231 0.572 1.729l6.165 6.918v1.605c0 0.345 0.325 0.625 0.725 0.625s0.725-0.28 0.725-0.625v-1.818c0-0.138-0.053-0.271-0.15-0.381l-6.312-7.083c-0.215-0.245-0.315-0.548-0.281-0.853l0.777-7.055c0.048-0.433 0.464-0.76 0.969-0.76 0.537 0 0.974 0.376 0.974 0.839v5.638c0 0.541 0.211 1.076 0.594 1.505l1.518 1.704c0.002 0.003 0.005 0.005 0.007 0.008l1.225 1.375c0.244 0.274 0.7 0.325 1.017 0.115s0.377-0.603 0.133-0.876l-1.229-1.379c-0.285-0.325-0.217-0.793 0.154-1.047 0.186-0.128 0.419-0.184 0.655-0.159s0.445 0.129 0.589 0.293l2.928 3.316c0.576 0.653 0.894 1.464 0.894 2.284v4.334c0 0.345 0.325 0.625 0.725 0.625s0.725-0.28 0.725-0.625v-4.334c0-1.092-0.422-2.172-1.19-3.041l-2.928-3.316z"></path>
<path d="M31.987 21.123l-0.777-7.055c-0.119-1.078-1.157-1.892-2.414-1.892-1.337 0-2.424 0.937-2.424 2.089v5.638c0 0.268-0.104 0.532-0.293 0.744l-0.213 0.239c-0.14-0.209-0.327-0.399-0.558-0.558-0.494-0.339-1.111-0.488-1.738-0.421s-1.182 0.343-1.564 0.776l-2.928 3.316c-0.767 0.869-1.19 1.949-1.19 3.041v4.334c0 0.345 0.325 0.625 0.725 0.625s0.725-0.28 0.725-0.625v-4.334c0-0.82 0.317-1.631 0.894-2.284l2.928-3.316c0.144-0.163 0.354-0.267 0.59-0.293s0.469 0.031 0.655 0.159c0.37 0.254 0.439 0.723 0.154 1.047l-1.229 1.379c-0.244 0.274-0.184 0.666 0.133 0.876s0.773 0.159 1.017-0.115l1.225-1.375c0.002-0.002 0.004-0.005 0.007-0.007l1.519-1.704c0.382-0.429 0.593-0.964 0.593-1.505v-5.638c0-0.463 0.437-0.839 0.974-0.839 0.505 0 0.922 0.327 0.97 0.76l0.777 7.055c0.033 0.306-0.066 0.608-0.279 0.85l-6.315 7.086c-0.097 0.109-0.15 0.243-0.15 0.381v1.818c0 0.345 0.325 0.625 0.725 0.625s0.725-0.28 0.725-0.625v-1.605l6.168-6.921c0.435-0.495 0.637-1.108 0.569-1.726v0z"></path>
<path d="M9.018 7.006c0.255 0.147 0.601 0.137 0.844-0.024 0.229-0.152 0.336-0.417 0.259-0.658-0.082-0.258-0.35-0.447-0.662-0.462-0.308-0.014-0.599 0.148-0.712 0.395-0.124 0.271-0.009 0.587 0.271 0.749z"></path>
</symbol>
<symbol id="icon-adv-2" viewBox="0 0 32 32">
<path d="M30.573 9.807l-0.638-0.319v-4.326c0-0.854-0.695-1.548-1.548-1.548h-8.258c-0.854 0-1.548 0.695-1.548 1.548v4.326l-0.638 0.319c-0.88 0.44-1.427 1.324-1.427 2.308v18.337c0 0.854 0.695 1.548 1.548 1.548h12.387c0.854 0 1.548-0.695 1.548-1.548v-18.337c0-0.984-0.547-1.868-1.427-2.308zM19.613 5.162c0-0.285 0.232-0.516 0.516-0.516h8.258c0.284 0 0.516 0.231 0.516 0.516v1.548h-9.29v-1.548zM25.806 7.742v1.032h-3.097v-1.032h3.097zM30.968 30.452c0 0.285-0.232 0.516-0.516 0.516h-12.387c-0.284 0-0.516-0.231-0.516-0.516v-3.097h13.419v3.097zM30.968 26.323h-13.419v-11.355h13.419v11.355zM30.968 13.936h-13.419v-1.821c0-0.59 0.328-1.121 0.856-1.385l1.209-0.604v-2.383h2.065v1.032c0 0.569 0.463 1.032 1.032 1.032h3.097c0.569 0 1.032-0.463 1.032-1.032v-1.032h2.065v2.383l1.209 0.604c0.528 0.264 0.856 0.794 0.856 1.385v1.821z"></path>
<path d="M0.002 2.624l1.846 21.843c0.1 1.231 1.078 2.204 2.281 2.344v5.19h7.226v-5.19c1.203-0.139 2.182-1.112 2.281-2.342l1.848-21.887v-2.581h-15.484l0.002 2.624zM10.323 30.968h-5.161v-2.065h5.161v2.065zM10.323 27.871h-5.161v-1.032h5.161v1.032zM12.607 24.383c-0.065 0.798-0.742 1.423-1.543 1.423h-6.644c-0.801 0-1.479-0.625-1.543-1.425l-0.272-3.22h10.275l-0.273 3.222zM12.967 20.129h-10.45l-0.961-11.355h12.37l-0.959 11.355zM1.032 1.032h13.42l0.001 1.032h-1.034v1.032h0.986l-0.393 4.645h-12.544l-0.393-4.645h11.311v-1.032h-11.355v-1.032z"></path>
<path d="M7.745 17.893c1.421 0 2.578-1.157 2.578-2.578 0-0.359-0.073-0.707-0.217-1.037l-1.167-2.657c-0.209-0.475-0.678-0.782-1.196-0.782s-0.988 0.307-1.196 0.781l-1.167 2.658c-0.144 0.329-0.217 0.678-0.217 1.036 0 1.421 1.157 2.578 2.583 2.578zM6.324 14.693l1.167-2.658c0.044-0.1 0.142-0.164 0.251-0.164s0.207 0.065 0.251 0.164l1.167 2.657c0.087 0.198 0.131 0.407 0.131 0.622 0 0.852-0.694 1.546-1.551 1.546-0.852 0-1.546-0.694-1.546-1.546 0-0.215 0.044-0.424 0.13-0.621z"></path>
<path d="M24.261 24.086c1.421 0 2.578-1.157 2.578-2.578 0-0.359-0.073-0.707-0.217-1.037l-1.167-2.657c-0.209-0.475-0.678-0.782-1.196-0.782s-0.988 0.307-1.196 0.781l-1.167 2.658c-0.144 0.329-0.217 0.678-0.217 1.036 0 1.421 1.157 2.578 2.583 2.578zM22.84 20.886l1.168-2.658c0.044-0.1 0.142-0.164 0.251-0.164s0.207 0.064 0.251 0.164l1.167 2.657c0.087 0.198 0.131 0.407 0.131 0.622 0 0.852-0.694 1.546-1.551 1.546-0.852 0-1.546-0.694-1.546-1.546 0-0.215 0.044-0.424 0.13-0.621z"></path>
</symbol>
<symbol id="icon-adv-3" viewBox="0 0 32 32">
<path d="M28.726 20.552l-5.892 2.244c0.026-0.161 0.041-0.325 0.041-0.491 0-1.527-1.121-2.77-2.5-2.77h-4.047c-0.107 0-0.213-0.031-0.307-0.089l-3.302-2.058c-0.653-0.408-1.395-0.623-2.146-0.623h-4.431c-0.258-0.806-0.953-1.385-1.767-1.385h-3.75c-0.345 0-0.625 0.31-0.625 0.692v12.465c0 0.383 0.28 0.692 0.625 0.692h3.75c0.796 0 1.479-0.554 1.75-1.333 0.708 0.097 1.526 0.329 2.041 0.671l3.269 2.173c1.238 0.823 2.656 1.259 4.1 1.259 1.145 0 2.253-0.266 3.296-0.791l11.665-5.691c1.292-0.581 1.93-2.298 1.191-3.812-0.543-1.114-1.815-1.61-2.961-1.154zM5 27.156c-0.002 0.38-0.282 0.689-0.625 0.689h-3.125v-11.080h3.125c0.345 0 0.625 0.311 0.625 0.692v9.698zM30.021 24.237c-0.007 0.003-0.013 0.006-0.020 0.009 0 0-11.683 5.7-11.685 5.701-0.88 0.444-1.816 0.668-2.782 0.668-1.218 0-2.413-0.367-3.457-1.061l-3.269-2.173c-0.7-0.465-1.702-0.748-2.558-0.862v-8.368h4.323c0.536 0 1.066 0.154 1.532 0.445l3.302 2.058c0.28 0.175 0.598 0.267 0.92 0.267h4.047c0.689 0 1.25 0.621 1.25 1.385 0 0.761-0.561 1.385-1.25 1.385h-6.354c-0.345 0-0.625 0.31-0.625 0.692s0.28 0.692 0.625 0.692h6.354c0.41 0 0.814-0.113 1.172-0.324 0 0 7.596-2.893 7.599-2.894 0.56-0.224 1.193-0.001 1.442 0.508 0.372 0.763 0.064 1.593-0.567 1.873z"></path>
<path d="M3.125 18.151c-0.345 0-0.625 0.31-0.625 0.692s0.28 0.692 0.625 0.692c0.345 0 0.625-0.31 0.625-0.692s-0.28-0.692-0.625-0.692z"></path>
<path d="M18.203 16.797c0.118 0.113 0.263 0.169 0.409 0.169s0.292-0.056 0.409-0.169c5.099-4.897 8.254-7.375 8.254-11.226 0-3.046-1.947-5.571-4.681-5.571-1.796 0-3.171 1.147-4.057 2.868-0.884-1.717-2.258-2.868-4.056-2.868-2.094 0-3.844 1.503-4.459 3.829-0.097 0.367 0.093 0.752 0.424 0.859s0.678-0.103 0.775-0.47c0.455-1.721 1.735-2.834 3.26-2.834 1.783 0 3.034 1.754 3.454 3.388 0.075 0.3 0.322 0.508 0.602 0.508s0.527-0.208 0.602-0.508c0.009-0.034 0.877-3.388 3.455-3.388 1.956 0 3.431 1.799 3.431 4.186 0 3.081-2.718 5.301-7.414 9.787-2.861-2.722-5.134-4.639-6.426-6.513-0.209-0.304-0.602-0.363-0.876-0.13s-0.327 0.667-0.118 0.971c1.456 2.113 3.914 4.137 7.010 7.111v0z"></path>
<path d="M10.563 6.101c-0.345 0-0.625 0.31-0.625 0.692s0.28 0.692 0.625 0.692c0.345 0 0.625-0.31 0.625-0.692s-0.28-0.692-0.625-0.692z"></path>
</symbol>
<symbol id="icon-adv-4" viewBox="0 0 32 32">
<path d="M24.516 7.13c-0.116-0.191-0.31-0.304-0.516-0.304h-16c-0.206 0-0.4 0.114-0.516 0.304l-4 6.544c-0.153 0.251-0.144 0.584 0.023 0.823l12 17.234c0.118 0.17 0.3 0.269 0.493 0.269s0.375-0.099 0.493-0.269l4.273-6.136c0.212-0.305 0.163-0.743-0.109-0.981s-0.665-0.182-0.877 0.122l-2.415 3.468 3.119-13.438h6.238l-3.487 5.008c-0.212 0.305-0.163 0.743 0.109 0.981s0.665 0.182 0.877-0.122l4.273-6.136c0.167-0.24 0.176-0.573 0.023-0.823l-4-6.544zM16 8.762l2.816 4.607h-5.632l2.816-4.607zM12 12.829l-2.816-4.607h5.632l-2.816 4.607zM17.184 8.222h5.632l-2.816 4.607-2.816-4.607zM8 8.762l2.816 4.607h-5.632l2.816-4.607zM5.279 14.766h6.238l3.119 13.438-9.357-13.438zM16 28.519l-3.192-13.753h6.384l-3.192 13.753zM21.184 13.369l2.816-4.607 2.816 4.607-5.632-0z"></path>
<path d="M16 4.891c0.345 0 0.625-0.313 0.625-0.699v-3.493c0-0.386-0.28-0.699-0.625-0.699s-0.625 0.313-0.625 0.699v3.493c0 0.386 0.28 0.699 0.625 0.699z"></path>
<path d="M8.483 4.73c0.116 0.224 0.326 0.349 0.542 0.349 0.106 0 0.213-0.030 0.312-0.094 0.299-0.193 0.401-0.62 0.229-0.954l-1.643-3.181c-0.173-0.334-0.555-0.449-0.854-0.256s-0.401 0.62-0.229 0.954l1.643 3.181z"></path>
<path d="M0.349 8.591l2.345 1.514c0.098 0.063 0.206 0.094 0.312 0.094 0.216 0 0.426-0.125 0.542-0.349 0.173-0.334 0.070-0.762-0.229-0.954l-2.345-1.514c-0.299-0.193-0.681-0.078-0.854 0.256s-0.070 0.762 0.229 0.954v0z"></path>
<path d="M2.479 17.188h-1.854c-0.345 0-0.625 0.313-0.625 0.699s0.28 0.699 0.625 0.699h1.854c0.345 0 0.625-0.313 0.625-0.699s-0.28-0.699-0.625-0.699z"></path>
<path d="M22.663 4.985c0.098 0.064 0.206 0.094 0.312 0.094 0.216 0 0.426-0.125 0.542-0.349l1.643-3.181c0.173-0.334 0.070-0.761-0.229-0.954s-0.681-0.078-0.854 0.256l-1.643 3.181c-0.173 0.334-0.070 0.762 0.229 0.954v0z"></path>
<path d="M28.994 10.199c0.106 0 0.213-0.030 0.312-0.094l2.345-1.514c0.299-0.193 0.401-0.62 0.229-0.954s-0.555-0.449-0.854-0.256l-2.345 1.514c-0.299 0.193-0.401 0.62-0.229 0.954 0.116 0.224 0.326 0.349 0.542 0.349z"></path>
<path d="M31.375 17.188h-1.854c-0.345 0-0.625 0.313-0.625 0.699s0.28 0.699 0.625 0.699h1.854c0.345 0 0.625-0.313 0.625-0.699s-0.28-0.699-0.625-0.699z"></path>
<path d="M22 21.985c-0.164 0-0.326 0.075-0.442 0.205s-0.183 0.31-0.183 0.494c0 0.184 0.067 0.364 0.183 0.494s0.277 0.205 0.442 0.205 0.326-0.075 0.442-0.205c0.116-0.13 0.183-0.31 0.183-0.494s-0.067-0.364-0.183-0.494c-0.116-0.13-0.277-0.205-0.442-0.205z"></path>
</symbol>
<symbol id="icon-adv-5" viewBox="0 0 32 32">
<path d="M29.668 25.57c-1.373-1.222-3.221-2.052-5.247-2.366v-0.485c0-0.259-0.269-0.469-0.602-0.469h-2.406c-0.154 0-0.295 0.045-0.401 0.119v-0.868c1.326-0.353 2.541-0.942 3.559-1.739 0.234-0.183 0.234-0.48-0.002-0.663s-0.616-0.182-0.851 0.002c-0.972 0.761-2.15 1.304-3.437 1.597-0.025 0.004-0.050 0.010-0.074 0.017-0.706 0.155-1.444 0.235-2.197 0.235h-0.011c-4.441 0-8.055-2.816-8.055-6.277v-3.766h16.12v3.766c0 1.021-0.322 2.035-0.931 2.932-0.155 0.229-0.043 0.512 0.25 0.634 0.295 0.122 0.658 0.033 0.813-0.195 0.692-1.019 1.062-2.169 1.070-3.329 0.178 0.032 0.359 0.048 0.541 0.048 1.751 0 2.667-1.543 2.667-3.068 0-0.299-0.034-0.58-0.1-0.841 0.615-0.15 1.062-0.599 1.062-1.127v-1.702c0-0.651-0.68-1.181-1.515-1.181h-0.089v-2.541c0-2.373-2.477-4.303-5.522-4.303h-12.616c-3.045 0-5.522 1.93-5.522 4.303v0.181c0 0.259 0.269 0.469 0.602 0.469s0.601-0.21 0.601-0.469v-0.181c0-1.856 1.937-3.365 4.319-3.365h12.616c2.381 0 4.319 1.51 4.319 3.365v2.541h-21.253v-0.349c0-0.259-0.269-0.469-0.601-0.469s-0.602 0.21-0.602 0.469v0.349h-0.089c-0.835 0-1.515 0.53-1.515 1.181v1.702c0 0.528 0.447 0.976 1.062 1.127-0.066 0.261-0.1 0.542-0.1 0.841 0 1.525 0.916 3.068 2.667 3.068 0.182 0 0.363-0.016 0.541-0.048 0.023 3.142 2.636 5.814 6.255 6.784v0.872c-0.106-0.074-0.247-0.119-0.401-0.119h-2.406c-0.332 0-0.601 0.21-0.601 0.469v0.485c-1.646 0.255-3.17 0.849-4.42 1.716-0.255-0.516-0.865-0.895-1.595-0.957v-0.713h4.406c0.332 0 0.602-0.21 0.602-0.469s-0.269-0.469-0.602-0.469h-0.159v-2.313h0.159c0.332 0 0.602-0.21 0.602-0.469s-0.269-0.469-0.602-0.469h-4.406v-0.406c0-0.81-0.845-1.469-1.885-1.469s-1.885 0.659-1.885 1.469v0.406h-0.642c-0.332 0-0.602 0.21-0.602 0.469s0.269 0.469 0.602 0.469h0.642v2.313h-0.642c-0.332 0-0.602 0.21-0.602 0.469s0.269 0.469 0.602 0.469h0.642v0.704h-0.687c-0.616 0-1.117 0.39-1.117 0.87v4.686c0 0.471 0.483 0.856 1.083 0.87v0.9c0 0.396 0.414 0.719 0.922 0.719h29.394c0.332 0 0.602-0.21 0.602-0.469v-1.125c0-1.781-0.828-3.498-2.332-4.836zM27.809 13.824c-0.185 0-0.366-0.033-0.541-0.097v-2.821h1.891c0.075 0.235 0.114 0.502 0.114 0.788 0 1.047-0.548 2.131-1.464 2.131zM5.774 8.024c0-0.134 0.14-0.243 0.312-0.243h23.837c0.172 0 0.312 0.109 0.312 0.243v1.702c0 0.134-0.14 0.243-0.312 0.243-1.416 0-22.531 0-23.837 0-0.172 0-0.312-0.109-0.312-0.243v-1.702zM6.737 11.694c0-0.286 0.039-0.553 0.114-0.788h1.891v2.821c-0.174 0.065-0.355 0.097-0.541 0.097-0.917-0-1.464-1.083-1.464-2.131zM23.218 23.188c0 0.073 0 2.59 0 3.688h-1.203c0-1.697 0-2.479 0-3.688h1.203zM17.999 21.887h0.011c0.611 0 1.213-0.046 1.799-0.135v0.78c0 0.559 0.395 1.051 1.003 1.3v3.044h-5.614v-3.044c0.608-0.248 1.003-0.74 1.003-1.3v-0.781c0.582 0.090 1.184 0.137 1.799 0.137zM13.995 23.188c0 1.096 0 2.079 0 3.688h-1.203c0-1.040 0-2.463 0-3.688h1.203zM3.008 20h1.363v2.313h-1.363v-2.313zM5.574 20h0.477v2.313h-0.477v-2.313zM8.617 20v2.313h-1.363v-2.313h1.363zM3.008 18.656c0-0.293 0.306-0.531 0.682-0.531s0.682 0.238 0.682 0.531v0.406h-1.363v-0.406zM3.008 23.25h1.363v0.704h-1.363v-0.704zM1.203 24.892c1.38 0 2.965 0 4.162 0 0.403 0 0.731 0.255 0.731 0.569v3.249c0 0.405-0.423 0.734-0.942 0.734h-3.453c-0.006-0-0.011-0-0.017-0s-0.011 0-0.017 0h-0.465v-4.552zM2.286 31.063v-0.681h2.727v0.681h-2.727zM11.709 31.063v-0.583c0-0.259-0.269-0.469-0.601-0.469s-0.601 0.21-0.601 0.469v0.583h-4.291v-0.901c0.646-0.288 1.083-0.831 1.083-1.452v-2.567c1.14-0.996 2.638-1.685 4.291-1.98v2.713c-0.597 0-1.083 0.379-1.083 0.844v0.76c0 0.259 0.269 0.469 0.601 0.469s0.601-0.21 0.601-0.469v-0.667h12.592v3.25h-12.591zM30.797 31.063h-5.293v-3.344c0-0.465-0.486-0.844-1.083-0.844v-2.713c1.674 0.3 3.197 1.006 4.342 2.025 1.312 1.167 2.034 2.665 2.034 4.219v0.656z"></path>
</symbol>
<symbol id="icon-adv-6" viewBox="0 0 32 32">
<path d="M31.375 3.951h-1.875v-2.963c0-0.545-0.28-0.988-0.625-0.988h-11.313c-0.345 0-0.625 0.442-0.625 0.988s0.28 0.988 0.625 0.988h10.688v20.148h-27v-20.148h10.688c0.345 0 0.625-0.442 0.625-0.988s-0.28-0.988-0.625-0.988h-11.313c-0.345 0-0.625 0.442-0.625 0.988v22.123c0 0.545 0.28 0.988 0.625 0.988h1.875v6.914c0 0.545 0.28 0.988 0.625 0.988h28.25c0.345 0 0.625-0.442 0.625-0.988v-26.074c0-0.545-0.28-0.988-0.625-0.988zM28.875 24.099c0.345 0 0.625-0.442 0.625-0.988v-17.185h1.25v20.148h-27v-1.975h25.125zM3.75 30.025v-1.975h27v1.975h-27z"></path>
<path d="M4.708 4.938c0 1.38-0.71 2.502-1.583 2.502-0.345 0-0.625 0.442-0.625 0.988v7.243c0 0.545 0.28 0.988 0.625 0.988 0.873 0 1.583 1.122 1.583 2.502 0 0.545 0.28 0.988 0.625 0.988h18.833c0.345 0 0.625-0.442 0.625-0.988 0-1.38 0.71-2.502 1.583-2.502 0.345 0 0.625-0.442 0.625-0.988v-7.243c0-0.545-0.28-0.988-0.625-0.988-0.873 0-1.583-1.122-1.583-2.502 0-0.545-0.28-0.988-0.625-0.988h-18.833c-0.345 0-0.625 0.442-0.625 0.988v0zM23.611 5.926c0.24 1.677 1.077 3.001 2.139 3.38v5.487c-1.062 0.379-1.899 1.702-2.139 3.38h-17.722c-0.24-1.677-1.077-3.001-2.139-3.38v-5.487c1.062-0.379 1.899-1.702 2.139-3.38l17.722 0z"></path>
<path d="M14.75 16.198c1.447 0 2.625-1.861 2.625-4.148s-1.178-4.148-2.625-4.148-2.625 1.861-2.625 4.148c0 2.287 1.178 4.148 2.625 4.148zM14.75 9.877c0.758 0 1.375 0.975 1.375 2.173s-0.617 2.173-1.375 2.173c-0.758 0-1.375-0.975-1.375-2.173s0.617-2.173 1.375-2.173z"></path>
<path d="M14.75 1.975c0.164 0 0.326-0.106 0.442-0.289s0.183-0.438 0.183-0.698-0.067-0.515-0.183-0.698c-0.116-0.184-0.277-0.289-0.442-0.289s-0.326 0.106-0.442 0.289c-0.116 0.184-0.183 0.439-0.183 0.698s0.067 0.515 0.183 0.698c0.116 0.184 0.277 0.289 0.442 0.289z"></path>
</symbol>
<symbol id="icon-arrow" viewBox="0 0 108 32">
<path  d="M105.414 17.985c0.781-0.781 0.781-2.047 0-2.828l-12.728-12.728c-0.781-0.781-2.048-0.781-2.828 0s-0.781 2.047 0 2.828l11.314 11.314-11.314 11.314c-0.781 0.781-0.781 2.047 0 2.828s2.047 0.781 2.828 0l12.728-12.728zM0 18.57h104v-4h-104v4z"></path>
</symbol>
<symbol id="icon-instagram" viewBox="0 0 34 32">
<path d="M24.692 5.688h-15.265c-1.578 0-2.862 1.262-2.862 2.813v15c0 1.551 1.284 2.813 2.862 2.813h15.265c1.578 0 2.862-1.262 2.862-2.813v-15c0-1.551-1.284-2.813-2.862-2.813zM17.059 22.562c-3.682 0-6.678-2.944-6.678-6.562s2.996-6.563 6.678-6.563c3.682 0 6.678 2.944 6.678 6.563s-2.996 6.562-6.678 6.562zM23.738 11.313c-1.052 0-1.908-0.841-1.908-1.875s0.856-1.875 1.908-1.875c1.052 0 1.908 0.841 1.908 1.875s-0.856 1.875-1.908 1.875z"></path>
<path d="M17.059 11.313c-2.63 0-4.77 2.103-4.77 4.687s2.14 4.687 4.77 4.687c2.63 0 4.77-2.103 4.77-4.687s-2.14-4.687-4.77-4.687z"></path>
<path d="M33.342 0h-32.565c-4.834 0-0.286 0 0 4.75l0.223 27.25c0.223 4.75 0.032 0 4.611 0h27.731c4.802 0 0 0 0-4.75v-22.5c0-4.75 4.834-4.75 0-4.75zM29.462 23.5c0 2.585-2.14 4.688-4.77 4.688h-15.265c-2.63 0-4.77-2.103-4.77-4.688v-15c0-2.584 2.14-4.688 4.77-4.688h15.265c2.63 0 4.77 2.103 4.77 4.688v15z"></path>
</symbol>
<symbol id="icon-behance" viewBox="0 0 34 32">
<path d="M13.548 17.060c-0.401-0.299-0.935-0.447-1.592-0.447h-3.319v3.753h3.258c0.301 0 0.587-0.026 0.856-0.085 0.273-0.059 0.515-0.152 0.719-0.289 0.204-0.132 0.373-0.313 0.496-0.544 0.123-0.228 0.182-0.525 0.182-0.883 0-0.703-0.201-1.201-0.601-1.504z"></path>
<path d="M13.070 14.181c0.351-0.252 0.521-0.668 0.521-1.239 0-0.317-0.057-0.579-0.17-0.783-0.118-0.203-0.274-0.363-0.47-0.474-0.195-0.116-0.416-0.196-0.672-0.239-0.251-0.048-0.515-0.067-0.785-0.067h-2.857v3.184h3.090c0.541 0 0.989-0.126 1.344-0.382z"></path>
<path d="M0.573 0v32h32.565v-32h-32.565zM20.301 9.973h5.621v1.345h-5.621v-1.345zM16.792 20.516c-0.271 0.507-0.641 0.917-1.097 1.234-0.459 0.32-0.987 0.554-1.578 0.707-0.584 0.153-1.191 0.229-1.812 0.229h-6.722v-13.627h6.538c0.663 0 1.262 0.056 1.809 0.173 0.544 0.113 1.008 0.303 1.401 0.562 0.386 0.26 0.689 0.605 0.905 1.040 0.211 0.428 0.317 0.965 0.317 1.599 0 0.686-0.158 1.259-0.475 1.717-0.319 0.457-0.788 0.833-1.415 1.124 0.854 0.241 1.486 0.666 1.905 1.269 0.421 0.608 0.627 1.335 0.627 2.187-0 0.691-0.135 1.286-0.404 1.786zM28.111 18.405h-7.246c0 0.78 0.268 1.518 0.683 1.915 0.413 0.396 1.010 0.596 1.783 0.596 0.556 0 1.037-0.138 1.44-0.414 0.4-0.275 0.643-0.569 0.737-0.875h2.429c-0.39 1.188-0.983 2.036-1.791 2.546-0.799 0.513-1.773 0.768-2.908 0.768-0.791 0-1.503-0.126-2.142-0.374-0.639-0.251-1.172-0.603-1.621-1.061-0.438-0.461-0.778-1.005-1.020-1.644-0.24-0.636-0.361-1.34-0.361-2.103 0-0.738 0.125-1.427 0.371-2.064 0.25-0.639 0.596-1.191 1.052-1.653 0.456-0.465 0.997-0.832 1.627-1.1s1.325-0.402 2.094-0.402c0.849 0 1.594 0.161 2.231 0.488 0.636 0.323 1.157 0.76 1.566 1.308s0.7 1.172 0.883 1.873c0.18 0.7 0.244 1.431 0.192 2.197z"></path>
<path d="M23.157 14.585c-0.441 0-0.805 0.073-1.097 0.221-0.285 0.147-0.519 0.329-0.698 0.544-0.178 0.218-0.299 0.449-0.37 0.695-0.071 0.24-0.113 0.458-0.126 0.65h4.487c-0.066-0.691-0.307-1.202-0.636-1.561-0.328-0.356-0.883-0.549-1.56-0.549z"></path>
</symbol>
<symbol id="icon-mail" viewBox="0 0 34 32">
<path d="M32.923 6.358l-9.876 9.642 9.876 9.642c0.179-0.367 0.287-0.772 0.287-1.205v-16.875c0-0.433-0.108-0.838-0.287-1.205z"></path>
<path d="M30.348 4.75h-26.841c-0.441 0-0.853 0.106-1.226 0.282l12.623 12.341c1.116 1.097 2.931 1.097 4.047 0l12.623-12.341c-0.373-0.175-0.786-0.282-1.226-0.282z"></path>
<path d="M0.931 6.358c-0.179 0.367-0.287 0.772-0.287 1.205v16.875c0 0.433 0.108 0.838 0.287 1.205l9.876-9.642-9.876-9.642z"></path>
<path d="M21.698 17.325l-1.398 1.373c-1.86 1.827-4.886 1.827-6.746 0l-1.397-1.373-9.876 9.642c0.373 0.175 0.786 0.282 1.226 0.282h26.841c0.441 0 0.853-0.106 1.226-0.282l-9.876-9.642z"></path>
</symbol>
<symbol id="icon-map" viewBox="0 0 35 32">
<path d="M16.848 0.985c-5.851 0-10.612 4.678-10.612 10.428 0 7.227 10.623 19.572 10.623 19.572s10.602-12.701 10.602-19.572c0-5.75-4.76-10.428-10.612-10.428zM20.050 14.466c-0.883 0.867-2.042 1.301-3.202 1.301s-2.319-0.434-3.202-1.301c-1.766-1.735-1.766-4.558 0-6.292 0.855-0.84 1.992-1.303 3.202-1.303s2.347 0.463 3.202 1.303c1.765 1.735 1.765 4.558 0 6.292z"></path>
</symbol>
<symbol id="icon-phone" viewBox="0 0 36 32">
<path d="M28.442 19.314c-1.841 0-3.645-0.283-5.355-0.837-0.834-0.283-1.782-0.065-2.33 0.485l-3.389 2.515c-3.889-2.039-6.377-4.483-8.424-8.277l2.49-3.251c0.627-0.616 0.852-1.518 0.583-2.362-0.569-1.691-0.858-3.464-0.858-5.271 0-1.277-1.057-2.316-2.357-2.316h-5.499c-1.299 0-2.357 1.039-2.357 2.316 0 14.897 12.335 27.018 27.495 27.018 1.299 0 2.357-1.039 2.357-2.316v-5.388c0-1.277-1.057-2.316-2.357-2.316z"></path>
</symbol>
<symbol id="icon-polygon" viewBox="0 0 36 32">
<path d="M34.474 16l-33.38 15.988v-31.976l33.38 15.988z"></path>
</symbol>
<symbol id="icon-process-1" viewBox="0 0 32 32">
<path d="M29.354 25.651l-1.299-0.448c0.727-0.573 1.195-1.457 1.195-2.45v-0.947c0-1.723-1.41-3.124-3.142-3.124s-3.142 1.402-3.142 3.124v0.947c0 0.992 0.468 1.877 1.195 2.45l-1.299 0.448c-0.833 0.288-1.534 0.816-2.035 1.489h-3.509v-1.377c0-1.813-1.157-3.43-2.879-4.025l-1.299-0.449c0.727-0.573 1.195-1.457 1.195-2.449v-0.947c0-1.723-1.41-3.124-3.142-3.124s-3.142 1.402-3.142 3.124v0.947c0 0.992 0.468 1.877 1.195 2.449l-1.299 0.449c-1.722 0.594-2.879 2.212-2.879 4.025v1.377h-4.538c-0.263 0-0.476 0.212-0.476 0.473v3.913c0 0.262 0.213 0.473 0.476 0.473h19.804c0.021 0 0.042-0.002 0.063-0.004 0.021 0.003 0.042 0.004 0.064 0.004h11.298c0.263 0 0.476-0.212 0.476-0.473v-1.85c0-1.812-1.157-3.43-2.879-4.025zM23.918 21.806c0-1.201 0.982-2.177 2.19-2.177s2.19 0.977 2.19 2.177v0.947c0 1.201-0.982 2.178-2.19 2.178s-2.19-0.977-2.19-2.178v-0.947zM9.002 17.893c0-1.201 0.982-2.178 2.19-2.178s2.19 0.977 2.19 2.178v0.947c0 1.201-0.982 2.177-2.19 2.177s-2.19-0.977-2.19-2.178v-0.947zM12.191 21.964l0.463 0.16-1.461 2.521-1.461-2.521 0.463-0.16h1.998zM6.019 25.763c0-1.41 0.9-2.668 2.239-3.13l0.557-0.192 1.964 3.39c0.085 0.147 0.242 0.237 0.412 0.237s0.328-0.090 0.412-0.237l1.964-3.39 0.557 0.192c1.339 0.462 2.239 1.72 2.239 3.13v1.377h-10.346v-1.377zM1.005 28.087h19.289c-0.201 0.495-0.31 1.033-0.31 1.589v1.377h-18.978v-2.966zM31.281 31.053h-10.346v-1.377c0-1.41 0.9-2.668 2.239-3.13l1.935-0.668h1.998l1.935 0.668c1.34 0.463 2.239 1.721 2.239 3.13v1.377z"></path>
<path d="M29.218 3.408h-4.836c-0.263 0-0.476 0.212-0.476 0.473s0.213 0.473 0.476 0.473h4.836c1.137 0 2.063 0.92 2.063 2.051v6.564c0 1.131-0.925 2.051-2.063 2.051h-6.538c-0.263 0-0.476 0.212-0.476 0.473v2.013l-2.361-2.348c-0.089-0.089-0.21-0.139-0.337-0.139h-3.872c-1.137 0-2.063-0.92-2.063-2.051v-6.564c0-1.131 0.925-2.051 2.063-2.051h6.522c0.263 0 0.476-0.212 0.476-0.473s-0.213-0.473-0.476-0.473h-2.491v-0.41c0-1.653-1.353-2.998-3.015-2.998h-13.583c-1.662 0-3.015 1.345-3.015 2.998v1.047c0 0.261 0.213 0.473 0.476 0.473s0.476-0.212 0.476-0.473v-1.047c0-1.131 0.925-2.051 2.063-2.051h13.583c1.137 0 2.063 0.92 2.063 2.051v0.41h-3.078c-1.662 0-3.015 1.345-3.015 2.998v5.207h-4.983c-0.263 0-0.476 0.212-0.476 0.473v2.013l-2.361-2.348c-0.089-0.089-0.21-0.139-0.337-0.139h-1.397c-1.137 0-2.063-0.92-2.063-2.051v-3.316c0-0.261-0.213-0.473-0.476-0.473s-0.476 0.212-0.476 0.473v3.316c0 1.653 1.353 2.998 3.015 2.998h1.199l3.034 3.017c0.091 0.091 0.213 0.139 0.337 0.138 0.061 0 0.123-0.012 0.182-0.036 0.178-0.073 0.294-0.246 0.294-0.437v-2.683h4.507v0.41c0 1.653 1.353 2.998 3.015 2.998h3.675l3.034 3.017c0.091 0.091 0.213 0.139 0.337 0.139 0.061 0 0.123-0.012 0.182-0.036 0.178-0.073 0.294-0.246 0.294-0.437v-2.683h6.062c1.663 0 3.015-1.345 3.015-2.998v-6.564c0-1.653-1.353-2.998-3.015-2.998z"></path>
</symbol>
<symbol id="icon-process-2" viewBox="0 0 32 32">
<path d="M32.158 9.783c-0.148-0.548-0.501-1.007-0.996-1.29s-1.070-0.359-1.622-0.212c-0.551 0.147-1.012 0.499-1.298 0.99l-2.8 4.823v-13.468c0-0.345-0.281-0.625-0.628-0.625h-9.246c-0.347 0-0.629 0.28-0.629 0.625s0.281 0.625 0.629 0.625h8.617v15.008l-4.388 7.557c-0.041 0.071-0.068 0.15-0.079 0.232l-0.506 3.872c-0.033 0.25 0.089 0.496 0.309 0.622 0.098 0.056 0.206 0.084 0.314 0.084 0.135 0 0.27-0.043 0.382-0.129l3.119-2.372c0.066-0.050 0.121-0.113 0.163-0.184l0.686-1.183v5.992h-22.878v-29.5h8.604c0.347 0 0.629-0.28 0.629-0.625s-0.281-0.625-0.629-0.625h-9.232c-0.347 0-0.629 0.28-0.629 0.625v30.75c0 0.345 0.281 0.625 0.629 0.625h24.135c0.347 0 0.628-0.28 0.628-0.625v-8.782l6.501-11.198c0.285-0.492 0.361-1.064 0.214-1.613zM22.726 24.775l-1.524-0.875 3.971-6.84 1.524 0.875-3.971 6.84zM20.845 25.138l0.981 0.563-1.171 0.89 0.19-1.453zM30.856 10.771l-3.531 6.082-1.524-0.875 3.531-6.082c0.118-0.202 0.307-0.347 0.534-0.408s0.464-0.029 0.668 0.087v0c0.204 0.117 0.349 0.306 0.41 0.531s0.030 0.462-0.088 0.664z"></path>
<path d="M17.524 9.729v-3.979c0-1.31-1.071-2.375-2.388-2.375h-4.777c-1.317 0-2.388 1.065-2.388 2.375v3.979c0 2.407 1.81 4.4 4.148 4.708v6.329c-0.96-0.866-2.311-1.196-3.572-0.862-0.217 0.058-0.387 0.227-0.445 0.443-0.352 1.313 0.028 2.725 0.993 3.685 0.727 0.723 1.712 1.116 2.719 1.116 0.102 0 0.204-0.004 0.305-0.013v3.49c0 0.345 0.281 0.625 0.629 0.625s0.629-0.28 0.629-0.625v-7.411c0.102 0.008 0.204 0.013 0.305 0.013 1.006 0 1.992-0.393 2.719-1.116 0.965-0.96 1.346-2.372 0.993-3.685-0.058-0.216-0.228-0.385-0.445-0.443-1.261-0.335-2.613-0.004-3.572 0.862v-2.408c2.338-0.307 4.148-2.3 4.148-4.708zM12.102 23.882c-0.775 0.087-1.56-0.179-2.118-0.734s-0.826-1.336-0.738-2.107c0.775-0.087 1.56 0.179 2.118 0.734s0.826 1.336 0.738 2.107zM14.131 17.854c0.558-0.555 1.344-0.821 2.118-0.734 0.088 0.77-0.18 1.551-0.738 2.107s-1.344 0.821-2.118 0.734c-0.088-0.77 0.18-1.551 0.738-2.107zM13.376 13.172v-3.311c0-0.957 0.783-1.736 1.746-1.736h0.014c0.409 0 0.794-0.103 1.131-0.284v1.888c0 1.716-1.249 3.147-2.891 3.443zM10.359 4.625h4.777c0.624 0 1.131 0.505 1.131 1.125s-0.508 1.125-1.131 1.125h-4.777c-0.624 0-1.131-0.505-1.131-1.125s0.508-1.125 1.131-1.125zM9.228 9.729v-1.888c0.337 0.181 0.722 0.284 1.131 0.284h2.322c-0.353 0.49-0.562 1.089-0.562 1.736v3.311c-1.642-0.296-2.891-1.726-2.891-3.443z"></path>
<path d="M12.74 1.25c0.165 0 0.327-0.067 0.444-0.183s0.184-0.278 0.184-0.442c0-0.164-0.067-0.326-0.184-0.442s-0.279-0.183-0.444-0.183c-0.165 0-0.327 0.067-0.444 0.183s-0.184 0.278-0.184 0.442c0 0.164 0.067 0.326 0.184 0.442s0.279 0.183 0.444 0.183z"></path>
</symbol>
<symbol id="icon-process-3" viewBox="0 0 32 32">
<path d="M31.187 11.85c-1.192-0.995-2.976-0.839-3.974 0.344l-2.684 3.158v-9.157c0-0.767-0.321-1.511-0.88-2.039l-3.581-3.383c-0.528-0.499-1.22-0.773-1.948-0.773h-15.274c-1.56 0-2.828 1.262-2.828 2.813v26.375c0 1.551 1.269 2.813 2.828 2.813h18.856c1.559 0 2.828-1.262 2.828-2.813v-5.123c0.116-0.137 6.985-8.227 7.006-8.252 1.005-1.191 0.849-2.963-0.349-3.962zM18.873 2.231c3.772 3.563 3.504 3.303 3.575 3.394h-3.575v-3.394zM22.644 29.187c0 0.517-0.423 0.938-0.943 0.938h-18.855c-0.52 0-0.943-0.42-0.943-0.938v-26.375c0-0.517 0.423-0.938 0.943-0.938h14.142v4.687c0 0.518 0.422 0.938 0.943 0.938h4.714v10.071c-0.405 0.477-3.657 4.303-4.008 4.716-0.281 0.333-0.483 0.732-0.584 1.154l-0.876 3.647c-0.083 0.345 0.037 0.708 0.311 0.936s0.654 0.283 0.981 0.142l3.46-1.491c0.26-0.112 0.502-0.264 0.717-0.447v2.959zM20.401 23.114l1.444 1.205-0.321 0.378c-0.093 0.111-0.214 0.2-0.347 0.258l-1.73 0.746 0.438-1.824c0.034-0.141 0.101-0.274 0.193-0.382l0.323-0.381zM23.062 22.887l-1.444-1.204c0.146-0.172 4.884-5.746 5.211-6.132l1.441 1.202-5.208 6.134zM30.093 14.605l-0.607 0.714-1.44-1.201 0.608-0.716c0.332-0.394 0.925-0.445 1.32-0.116 0.403 0.336 0.448 0.928 0.118 1.319z"></path>
<path d="M14.159 5.625h-9.428c-0.521 0-0.943 0.42-0.943 0.938s0.422 0.938 0.943 0.938h9.428c0.521 0 0.943-0.42 0.943-0.938s-0.422-0.938-0.943-0.938z"></path>
<path d="M19.815 11.313h-15.084c-0.521 0-0.943 0.42-0.943 0.938s0.422 0.938 0.943 0.938h15.084c0.521 0 0.943-0.42 0.943-0.938s-0.422-0.938-0.943-0.938z"></path>
<path d="M19.815 16.938h-15.084c-0.521 0-0.943 0.42-0.943 0.938s0.422 0.938 0.943 0.938h15.084c0.521 0 0.943-0.42 0.943-0.938s-0.422-0.938-0.943-0.938z"></path>
<path d="M14.159 22.563h-9.428c-0.521 0-0.943 0.42-0.943 0.937s0.422 0.938 0.943 0.938h9.428c0.521 0 0.943-0.42 0.943-0.938s-0.422-0.937-0.943-0.937z"></path>
</symbol>
<symbol id="icon-process-4" viewBox="0 0 32 32">
<path d="M30.14 11.548h-1.16v-2.375c0-0.345-0.281-0.625-0.628-0.625h-0.198c-0.019-3.93-3.24-7.122-7.198-7.122h-11.808c-0.444 0-0.806-0.359-0.806-0.801 0-0.345-0.281-0.625-0.629-0.625-1.82 0-3.301 1.472-3.301 3.282 0 1.177 0.629 2.21 1.571 2.786-0.792 0.588-1.352 1.469-1.518 2.48h-0.25c-0.347 0-0.629 0.28-0.629 0.625v2.375h-1.159c-1.232-0-2.235 0.997-2.235 2.222v7.884c0 2.359 0.758 4.599 2.192 6.479 1.433 1.878 3.397 3.207 5.68 3.843 0.056 0.016 0.115 0.024 0.173 0.024h16.090c0.057 0 0.114-0.008 0.169-0.023 2.285-0.635 4.25-1.965 5.684-3.844s2.192-4.119 2.192-6.479v-7.884c0-1.225-1.002-2.222-2.234-2.222zM8.31 6.55h11.662c0.347 0 0.629-0.28 0.629-0.625s-0.281-0.625-0.629-0.625h-12.273c-1.119 0-2.029-0.905-2.029-2.017 0-0.946 0.653-1.743 1.535-1.969 0.285 0.793 1.049 1.363 1.943 1.363h11.808c3.264 0 5.921 2.631 5.94 5.872h-21.149c0.283-1.146 1.324-1.999 2.562-1.999zM4.844 9.798h22.879v1.75h-22.879v-1.75zM31.117 21.655c0 4.202-2.823 7.929-6.876 9.095h-15.915c-4.053-1.166-6.876-4.894-6.876-9.095v-7.884c0-0.536 0.439-0.972 0.978-0.972h27.712c0.539 0 0.977 0.436 0.977 0.972v7.884z"></path>
<path d="M24.895 15.555h-17.222c-0.347 0-0.629 0.28-0.629 0.625v11.138c0 0.345 0.281 0.625 0.629 0.625h5.782c0.347 0 0.629-0.28 0.629-0.625s-0.281-0.625-0.629-0.625h-5.154v-9.888h15.965v9.888h-5.154c-0.347 0-0.629 0.28-0.629 0.625s0.281 0.625 0.629 0.625h5.783c0.347 0 0.628-0.28 0.628-0.625v-11.138c0-0.345-0.281-0.625-0.628-0.625z"></path>
<path d="M20.243 20.517c0.347 0 0.629-0.28 0.629-0.625s-0.281-0.625-0.629-0.625h-7.919c-0.347 0-0.629 0.28-0.629 0.625s0.281 0.625 0.629 0.625h7.919z"></path>
<path d="M12.332 24.23h7.919c0.347 0 0.629-0.28 0.629-0.625s-0.281-0.625-0.629-0.625h-7.919c-0.347 0-0.629 0.28-0.629 0.625s0.281 0.625 0.629 0.625z"></path>
<path d="M16.284 26.693c-0.165 0-0.327 0.066-0.444 0.182s-0.184 0.278-0.184 0.443c0 0.164 0.067 0.325 0.184 0.442s0.279 0.183 0.444 0.183 0.327-0.067 0.444-0.183c0.117-0.117 0.184-0.278 0.184-0.442s-0.067-0.326-0.184-0.443c-0.117-0.116-0.279-0.182-0.444-0.182z"></path>
</symbol>
<symbol id="icon-telegram" viewBox="0 0 33 32">
<path d="M22.654 10.525l-11.945 7.28c-0.21 0.128-0.306 0.38-0.233 0.612l1.602 5.073c0.034 0.107 0.192 0.092 0.204-0.019l0.389-3.402c0.015-0.132 0.079-0.253 0.18-0.34l10.115-8.79c0.242-0.21-0.039-0.582-0.314-0.414z"></path>
<path d="M0.057 0v32h32.565v-32h-32.565zM27.202 8.315l-3.718 17.467c-0.174 0.82-1.153 1.188-1.84 0.692l-5.614-4.049-2.861 2.87c-0.502 0.504-1.37 0.3-1.585-0.373l-2.065-6.439-5.534-1.606c-0.726-0.211-0.769-1.205-0.063-1.475l21.777-8.339c0.829-0.317 1.685 0.395 1.503 1.251z"></path>
</symbol>
<symbol id="icon-time" viewBox="0 0 33 32">
<path d="M29.243 7.516c-2.116-2.594-5.058-4.49-8.402-5.412l-0.35 1.126c3.086 0.851 5.803 2.601 7.756 4.996 1.998 2.446 3.076 5.442 3.066 8.522 0 7.762-6.743 14.078-15.030 14.078s-15.030-6.315-15.030-14.078c0-7.383 6.1-13.457 13.828-14.033l-0.571 0.803 1.042 0.651 1.252-1.76c0.069-0.096 0.105-0.21 0.105-0.325s-0.037-0.229-0.105-0.325l-1.252-1.76-1.042 0.651 0.631 0.886c-8.447 0.551-15.14 7.163-15.14 15.213 0 8.409 7.304 15.251 16.283 15.251s16.283-6.842 16.283-15.251c0.011-3.337-1.157-6.583-3.322-9.233z"></path>
<path d="M3.757 16.75c0 6.469 5.619 11.731 12.525 11.731s12.525-5.263 12.525-11.731-5.619-11.731-12.525-11.731c-6.906 0-12.525 5.263-12.525 11.731zM11.815 8.329l0.626 1.016-1.085 0.587-0.626-1.016 1.085-0.587zM6.262 16.164h1.253v1.173h-1.252v-1.173zM7.918 21.951l-0.626-1.016 1.085-0.587 0.626 1.016-1.085 0.587zM8.376 13.152l-1.085-0.587 0.626-1.016 1.085 0.587-0.626 1.016zM11.815 25.171l-1.085-0.587 0.626-1.016 1.085 0.587-0.626 1.016zM16.909 26.135h-1.253v-1.173h1.253v1.173zM16.909 16.75c0 0.103-0.029 0.204-0.084 0.293s-0.134 0.163-0.229 0.215l-3.758 2.032-0.626-1.016 3.444-1.862v-6.114h1.253v6.452zM26.303 17.337h-1.253v-1.173h1.253v1.173zM24.647 11.55l0.626 1.016-1.085 0.587-0.626-1.016 1.085-0.587zM24.189 20.348l1.085 0.587-0.626 1.016-1.085-0.587 0.626-1.016zM20.75 8.329l1.085 0.587-0.626 1.016-1.085-0.587 0.626-1.016zM21.209 23.569l0.626 1.016-1.085 0.587-0.626-1.016 1.085-0.587zM16.909 8.538h-1.253v-1.173h1.253v1.173z"></path>
<path d="M19.539 1.803c-0.429-0.081-0.867-0.148-1.303-0.196l-0.149 1.165c0.402 0.045 0.807 0.106 1.202 0.181l0.249-1.15z"></path>
</symbol>
</defs>
</svg>
